<svg width="38" height="38" viewBox="0 0 38 38" fill="none" xmlns="http://www.w3.org/2000/svg">
<rect width="38" height="38" rx="19" fill="#515165"/>
<path fill-rule="evenodd" clip-rule="evenodd" d="M19.0017 14.8978C16.7315 14.8978 14.9004 16.7293 14.9004 19C14.9004 21.2707 16.7315 23.1022 19.0017 23.1022C21.2718 23.1022 23.103 21.2707 23.103 19C23.103 16.7293 21.2718 14.8978 19.0017 14.8978ZM19.0018 21.667C17.5347 21.667 16.3354 20.4709 16.3354 19C16.3354 17.5291 17.5312 16.333 19.0018 16.333C20.4724 16.333 21.6682 17.5291 21.6682 19C21.6682 20.4709 20.4688 21.667 19.0018 21.667ZM24.2277 14.73C24.2277 15.262 23.7993 15.6868 23.2711 15.6868C22.7392 15.6868 22.3145 15.2584 22.3145 14.73C22.3145 14.2016 22.7428 13.7732 23.2711 13.7732C23.7993 13.7732 24.2277 14.2016 24.2277 14.73ZM26.9438 15.7011C26.8831 14.4194 26.5904 13.2841 25.6516 12.3487C24.7165 11.4133 23.5814 11.1205 22.2999 11.0562C20.9793 10.9813 17.0207 10.9813 15.7001 11.0562C14.4222 11.1169 13.2871 11.4097 12.3484 12.3451C11.4096 13.2805 11.1205 14.4158 11.0562 15.6975C10.9813 17.0185 10.9813 20.9779 11.0562 22.2989C11.1169 23.5806 11.4096 24.7159 12.3484 25.6513C13.2871 26.5867 14.4186 26.8795 15.7001 26.9438C17.0207 27.0187 20.9793 27.0187 22.2999 26.9438C23.5814 26.8831 24.7165 26.5903 25.6516 25.6513C26.5868 24.7159 26.8795 23.5806 26.9438 22.2989C27.0187 20.9779 27.0187 17.0221 26.9438 15.7011ZM25.2376 23.7163C24.9592 24.416 24.4202 24.9551 23.717 25.2372C22.664 25.6549 20.1654 25.5585 19.0018 25.5585C17.8381 25.5585 15.336 25.6513 14.2866 25.2372C13.5869 24.9587 13.048 24.4196 12.766 23.7163C12.3484 22.6631 12.4447 20.1639 12.4447 19C12.4447 17.8361 12.3519 15.3334 12.766 14.2837C13.0444 13.584 13.5834 13.0449 14.2866 12.7628C15.3395 12.3451 17.8381 12.4415 19.0018 12.4415C20.1654 12.4415 22.6676 12.3487 23.717 12.7628C24.4166 13.0413 24.9556 13.5804 25.2376 14.2837C25.6552 15.3369 25.5588 17.8361 25.5588 19C25.5588 20.1639 25.6552 22.6666 25.2376 23.7163Z" fill="#F4F4F9"/>
</svg>
