<svg width="38" height="38" viewBox="0 0 38 38" fill="none" xmlns="http://www.w3.org/2000/svg">
<rect width="38" height="38" rx="19" fill="#515165"/>
<path d="M27 14.5432C26.3705 14.8139 25.7409 14.983 25.1117 15.0509C25.8224 14.6245 26.3031 14.0222 26.5535 13.2439C25.9035 13.6296 25.2099 13.8935 24.4722 14.0357C23.8224 13.3453 23.0239 13 22.0761 13C21.1693 13 20.3961 13.3197 19.7563 13.9594C19.1168 14.599 18.797 15.3722 18.797 16.2791C18.797 16.5227 18.824 16.7732 18.8782 17.0304C17.538 16.9627 16.2809 16.626 15.1065 16.0202C13.9322 15.4144 12.9356 14.6073 12.1167 13.5989C11.8189 14.1064 11.6699 14.6581 11.6699 15.2537C11.6699 15.8154 11.8019 16.3366 12.066 16.8172C12.3299 17.2977 12.6853 17.6868 13.132 17.9846C12.604 17.9643 12.11 17.8255 11.6498 17.5683V17.6089C11.6498 18.4008 11.8985 19.0961 12.3959 19.6953C12.8934 20.2944 13.5212 20.6715 14.2792 20.8272C13.9949 20.9016 13.7072 20.9388 13.4162 20.9388C13.2267 20.9388 13.0202 20.9219 12.7969 20.8883C13.0067 21.5447 13.3925 22.0843 13.9542 22.5075C14.516 22.9305 15.1522 23.1486 15.8629 23.1624C14.6717 24.0963 13.3147 24.5632 11.7919 24.5632C11.5008 24.5632 11.2369 24.5499 11 24.5227C12.5229 25.504 14.2014 25.9946 16.0356 25.9946C17.1997 25.9946 18.2928 25.8104 19.3145 25.4414C20.3366 25.0727 21.2097 24.5785 21.9339 23.9591C22.658 23.3399 23.2825 22.6275 23.8069 21.8221C24.3314 21.0167 24.7222 20.1758 24.9796 19.2994C25.2367 18.4227 25.3653 17.5448 25.3653 16.6647C25.3653 16.4752 25.3619 16.3332 25.3551 16.2384C25.9983 15.7716 26.5465 15.2063 27 14.5432Z" fill="#F4F4F9"/>
</svg>
