<svg width="56" height="64" viewBox="0 0 56 64" fill="none" xmlns="http://www.w3.org/2000/svg">
<g filter="url(#filter0_d_1_8400)">
<path d="M27.999 6.99927C23.6245 7.00446 19.4307 8.74451 16.3375 11.8377C13.2443 14.931 11.5042 19.1248 11.499 23.4993C11.499 37.6174 26.499 48.2815 27.1377 48.7283C27.3903 48.9047 27.6909 48.9993 27.999 48.9993C28.3071 48.9993 28.6078 48.9047 28.8604 48.7283C29.499 48.2815 44.499 37.6174 44.499 23.4993C44.4938 19.1248 42.7538 14.931 39.6606 11.8377C36.5673 8.74451 32.3735 7.00446 27.999 6.99927ZM28.0001 17.4998C29.1868 17.4998 30.3468 17.8517 31.3335 18.511C32.3202 19.1703 33.0893 20.1074 33.5434 21.2037C33.9975 22.3001 34.1163 23.5065 33.8848 24.6704C33.6533 25.8342 33.0819 26.9033 32.2428 27.7425C31.4036 28.5816 30.3345 29.153 29.1707 29.3845C28.0068 29.616 26.8004 29.4972 25.704 29.0431C24.6077 28.589 23.6706 27.8199 23.0113 26.8332C22.352 25.8465 22.0001 24.6865 22.0001 23.4998C22.0001 22.7119 22.1553 21.9316 22.4568 21.2037C22.7583 20.4757 23.2003 19.8143 23.7574 19.2571C24.3146 18.7 24.976 18.258 25.704 17.9565C26.432 17.655 27.2122 17.4998 28.0001 17.4998Z" fill="#3139CE"/>
</g>
<circle cx="28" cy="58" r="4" fill="#3139CE"/>
<circle cx="27.9998" cy="58.0001" r="1.33333" fill="white"/>
<defs>
<filter id="filter0_d_1_8400" x="0.499023" y="-0.000732422" width="55" height="64" filterUnits="userSpaceOnUse" color-interpolation-filters="sRGB">
<feFlood flood-opacity="0" result="BackgroundImageFix"/>
<feColorMatrix in="SourceAlpha" type="matrix" values="0 0 0 0 0 0 0 0 0 0 0 0 0 0 0 0 0 0 127 0" result="hardAlpha"/>
<feOffset dy="4"/>
<feGaussianBlur stdDeviation="5.5"/>
<feColorMatrix type="matrix" values="0 0 0 0 0.22 0 0 0 0 0.224076 0 0 0 0 0.3 0 0 0 0.1 0"/>
<feBlend mode="normal" in2="BackgroundImageFix" result="effect1_dropShadow_1_8400"/>
<feBlend mode="normal" in="SourceGraphic" in2="effect1_dropShadow_1_8400" result="shape"/>
</filter>
</defs>
</svg>
