<svg width="119" height="40" viewBox="0 0 119 40" fill="none" xmlns="http://www.w3.org/2000/svg">
<g clip-path="url(#clip0_1_7796)">
<path d="M15.7822 33.0013L6.25626 29.592L3.54329 33.4971L3.3722 33.4421L3.36609 33.4482L19.5156 38.3572L15.7822 33.0013Z" fill="#5C3DF5"/>
<path d="M25.8093 38.5408L12.8066 20.1718L10.0569 16.2912L6.53127 11.3087L3.7633 7.39743L3.75719 7.38519L1.23975 8.27885C0.139893 8.67059 -0.281719 9.99883 0.390415 10.9537L1.808 12.9858L7.0812 20.533L9.82472 24.4626L15.7823 33.0013L19.5218 38.3571L24.8011 39.9608C25.6382 40.2118 26.3225 39.2569 25.8093 38.5408Z" fill="#5C3DF5"/>
<path d="M15.9043 7.97893L10.0568 16.2912L12.8064 20.1718L25.8091 1.45401C26.3285 0.719498 25.6014 -0.24761 24.7521 0.0523161L3.75706 7.39744L6.52502 11.3087L15.9043 7.97893Z" fill="#5C3DF5"/>
<path d="M12.8068 20.1718L18.6177 11.8106L15.9047 7.97894L10.0571 16.2912L12.8068 20.1718Z" fill="url(#paint0_linear_1_7796)"/>
<path d="M6.25605 29.5919L9.81836 24.4626L7.07483 20.533L0.353496 30.0877C-0.355299 31.0671 0.115194 32.4565 1.27004 32.8054L3.37199 33.442L3.54308 33.491L6.25605 29.5919Z" fill="url(#paint1_linear_1_7796)"/>
</g>
<path d="M44.9514 15.1778L48.6143 24.2622L49.4106 27.2489H49.4743L50.0795 24.2L52.9143 15.1778H55.3351L49.984 31.0756H48.7417L44.5692 20.8089L43.964 18.2578H43.8684L43.2314 20.84L39.218 31.0756H37.9758L32.4336 15.1778H35.2047L38.358 24.2311L38.8995 27.2489H38.9314L39.6958 24.1689L43.104 15.1778H44.9514Z" fill="white"/>
<path d="M57.3211 16.3289C58.128 15.8519 59.0623 15.4993 60.1241 15.2711C61.207 15.043 62.3324 14.9289 63.5004 14.9289C64.6045 14.9289 65.4858 15.0741 66.1441 15.3645C66.8236 15.6548 67.3332 16.0385 67.6729 16.5156C68.0339 16.9719 68.2675 17.48 68.3737 18.04C68.5011 18.6 68.5648 19.16 68.5648 19.72C68.5648 20.9645 68.5329 22.1778 68.4692 23.36C68.4055 24.5422 68.3737 25.6622 68.3737 26.72C68.3737 27.4874 68.4055 28.2133 68.4692 28.8978C68.5329 29.5822 68.6497 30.2148 68.8196 30.7956H66.9403L66.2715 28.6178H66.1122C65.9211 28.9082 65.6769 29.1985 65.3796 29.4889C65.1036 29.7585 64.7638 30.0074 64.3603 30.2356C63.9569 30.443 63.4897 30.6193 62.9589 30.7645C62.428 30.9096 61.8228 30.9822 61.1433 30.9822C60.4638 30.9822 59.8268 30.8785 59.2322 30.6711C58.6589 30.4637 58.1599 30.1733 57.7352 29.8C57.3105 29.4059 56.9707 28.9393 56.7159 28.4C56.4823 27.8608 56.3655 27.2489 56.3655 26.5645C56.3655 25.6519 56.5566 24.8948 56.9389 24.2933C57.3211 23.6711 57.852 23.1837 58.5315 22.8311C59.2322 22.4578 60.0603 22.1985 61.0159 22.0533C61.9927 21.8874 63.065 21.8045 64.2329 21.8045C64.5302 21.8045 64.8169 21.8045 65.0929 21.8045C65.3902 21.8045 65.6875 21.8252 65.9848 21.8667C66.0485 21.2445 66.0803 20.6845 66.0803 20.1867C66.0803 19.0459 65.8468 18.2474 65.3796 17.7911C64.9124 17.3348 64.0631 17.1067 62.8315 17.1067C62.4705 17.1067 62.0776 17.1378 61.6529 17.2C61.2495 17.2415 60.8248 17.3141 60.3789 17.4178C59.9542 17.5008 59.5401 17.6148 59.1366 17.76C58.7544 17.8845 58.4147 18.0296 58.1174 18.1956L57.3211 16.3289ZM61.8441 28.8045C62.4386 28.8045 62.9695 28.7319 63.4366 28.5867C63.9038 28.4208 64.3073 28.2237 64.647 27.9956C64.9868 27.7467 65.2628 27.477 65.4752 27.1867C65.7087 26.8963 65.8786 26.6163 65.9848 26.3467V23.7645C65.6875 23.7437 65.3796 23.7333 65.0611 23.7333C64.7638 23.7126 64.4665 23.7022 64.1692 23.7022C63.511 23.7022 62.8633 23.7437 62.2263 23.8267C61.6105 23.8889 61.0584 24.0237 60.57 24.2311C60.1028 24.4178 59.7206 24.6874 59.4233 25.04C59.1473 25.3719 59.0092 25.7971 59.0092 26.3156C59.0092 27.0415 59.2747 27.643 59.8055 28.12C60.3364 28.5763 61.0159 28.8045 61.8441 28.8045Z" fill="white"/>
<path d="M75.7345 26.9067C75.7345 27.6326 75.8619 28.1511 76.1167 28.4622C76.3715 28.7733 76.7325 28.9289 77.1996 28.9289C77.4757 28.9289 77.773 28.9082 78.0915 28.8667C78.41 28.8252 78.771 28.7319 79.1744 28.5867L79.4611 30.5467C79.1214 30.7126 78.6436 30.8474 78.0278 30.9511C77.4332 31.0548 76.913 31.1067 76.467 31.1067C75.5115 31.1067 74.7258 30.8474 74.11 30.3289C73.4942 29.7896 73.1863 28.8874 73.1863 27.6222V8.95557H75.7345V26.9067Z" fill="white"/>
<path d="M84.5572 26.9067C84.5572 27.6326 84.6846 28.1511 84.9394 28.4622C85.1942 28.7733 85.5552 28.9289 86.0223 28.9289C86.2984 28.9289 86.5957 28.9082 86.9142 28.8667C87.2327 28.8252 87.5937 28.7319 87.9972 28.5867L88.2838 30.5467C87.9441 30.7126 87.4663 30.8474 86.8505 30.9511C86.2559 31.0548 85.7357 31.1067 85.2898 31.1067C84.3342 31.1067 83.5485 30.8474 82.9327 30.3289C82.3169 29.7896 82.009 28.8874 82.009 27.6222V8.95557H84.5572V26.9067Z" fill="white"/>
<path d="M102.171 29.4889C101.534 29.9867 100.727 30.3808 99.7503 30.6711C98.7947 30.9615 97.7754 31.1067 96.6925 31.1067C95.4821 31.1067 94.431 30.92 93.5391 30.5467C92.6473 30.1526 91.9147 29.603 91.3414 28.8978C90.768 28.1719 90.3433 27.3111 90.0673 26.3156C89.7912 25.32 89.6532 24.2 89.6532 22.9556C89.6532 20.3008 90.2584 18.2785 91.4688 16.8889C92.6791 15.4993 94.4098 14.8045 96.6606 14.8045C97.3826 14.8045 98.1046 14.8874 98.8265 15.0533C99.5485 15.1985 100.196 15.4889 100.77 15.9245C101.343 16.36 101.81 16.9822 102.171 17.7911C102.532 18.5793 102.712 19.6267 102.712 20.9333C102.712 21.6178 102.649 22.3748 102.521 23.2045H92.2969C92.2969 24.117 92.3925 24.9259 92.5836 25.6311C92.7747 26.3363 93.072 26.9378 93.4754 27.4356C93.8789 27.9126 94.3991 28.2859 95.0362 28.5556C95.6944 28.8045 96.4907 28.9289 97.4251 28.9289C98.147 28.9289 98.869 28.8045 99.591 28.5556C100.313 28.3067 100.854 28.0163 101.215 27.6845L102.171 29.4889ZM96.6925 16.9822C95.4396 16.9822 94.431 17.3037 93.6665 17.9467C92.9233 18.5896 92.4774 19.6889 92.3288 21.2445H100.228C100.228 19.6682 99.9201 18.5689 99.3043 17.9467C98.6885 17.3037 97.8179 16.9822 96.6925 16.9822Z" fill="white"/>
<path d="M104.14 15.1778H106.624V12.0978L109.172 11.3822V15.1778H113.504V17.3556H109.172V25.9733C109.172 27.0519 109.31 27.8193 109.587 28.2756C109.863 28.7111 110.33 28.9289 110.988 28.9289C111.54 28.9289 112.007 28.877 112.389 28.7733C112.772 28.6489 113.196 28.4933 113.664 28.3067L114.237 30.2045C113.664 30.4741 113.037 30.6919 112.358 30.8578C111.678 31.0237 110.946 31.1067 110.16 31.1067C108.865 31.1067 107.951 30.7541 107.421 30.0489C106.89 29.323 106.624 28.12 106.624 26.44V17.3556H104.14V15.1778Z" fill="white"/>
<path fill-rule="evenodd" clip-rule="evenodd" d="M45.2766 14.7111L49.0694 24.1174L49.3788 25.278L49.6152 24.0868L52.5611 14.7111H55.995L50.3297 31.5422H48.4173L44.1117 20.9484L43.9079 20.0893L43.6885 20.9787L39.5466 31.5422H37.6337L31.7661 14.7111H35.5468L38.8222 24.115L38.9881 25.0394L39.238 24.0324L42.7713 14.7111H45.2766ZM38.9313 27.2489H38.8994L38.358 24.2311L35.2046 15.1778H32.4335L37.9757 31.0756H39.218L43.2313 20.84L43.8683 18.2578H43.9639L44.5691 20.8089L48.7417 31.0756H49.9839L55.335 15.1778H52.9143L50.0794 24.2L49.4743 27.2489H49.4106L48.6143 24.2622L44.9513 15.1778H43.1039L39.6957 24.1689L38.9313 27.2489ZM56.7218 16.1376L57.0736 15.9297C57.9315 15.4225 58.9161 15.0528 60.0213 14.8153L60.0232 14.8149C61.141 14.5794 62.3003 14.4622 63.5003 14.4622C64.6386 14.4622 65.5944 14.6106 66.338 14.938C67.0731 15.2525 67.6576 15.6814 68.0582 16.2394C68.4591 16.7491 68.7216 17.3199 68.8418 17.9468C68.9754 18.5365 69.0425 19.1278 69.0425 19.72C69.0425 20.9722 69.0104 22.1937 68.9463 23.3845C68.883 24.5595 68.8514 25.6713 68.8514 26.72C68.8514 27.4749 68.8827 28.1866 68.945 28.8555C69.0063 29.5148 69.1183 30.1182 69.2789 30.6674L69.4529 31.2622H66.5848L66.0385 29.4837C65.938 29.5963 65.8309 29.708 65.7174 29.8189C65.4069 30.1221 65.0323 30.3947 64.5997 30.6394L64.5913 30.6441L64.5828 30.6485C64.1441 30.8741 63.6444 31.0615 63.0876 31.2138C62.5064 31.3728 61.8566 31.4489 61.1432 31.4489C60.4132 31.4489 59.7214 31.3373 59.0714 31.1106L59.0688 31.1097L59.0662 31.1087C58.4402 30.8823 57.8881 30.5624 57.4155 30.1469L57.4107 30.1427L57.406 30.1383C56.9358 29.702 56.5612 29.1864 56.282 28.5956L56.2788 28.5887L56.2758 28.5818C56.0135 27.9762 55.8877 27.3009 55.8877 26.5644C55.8877 25.5911 56.0913 24.7436 56.5309 24.0503C56.9589 23.3548 57.5537 22.8105 58.3049 22.4202C59.0614 22.0176 59.9421 21.7446 60.9381 21.5929C61.9451 21.4221 63.0439 21.3378 64.2329 21.3378H65.0929C65.246 21.3378 65.399 21.3429 65.552 21.3531C65.5858 20.9285 65.6025 20.5399 65.6025 20.1867C65.6025 19.0822 65.3713 18.443 65.0417 18.1211C64.7155 17.8025 64.0346 17.5733 62.8314 17.5733C62.4981 17.5733 62.1292 17.6021 61.7237 17.6615L61.7133 17.663L61.7029 17.6641C61.3223 17.7032 60.9179 17.7721 60.4895 17.8718L60.481 17.8737L60.4725 17.8754C60.0719 17.9536 59.6818 18.0611 59.3017 18.1979L59.2947 18.2004L59.2877 18.2027C58.9302 18.3191 58.62 18.4525 58.3544 18.6007L57.8844 18.863L56.7218 16.1376ZM66.0274 21.4013C66.0152 21.5523 66.001 21.7075 65.9847 21.8667C65.8263 21.8446 65.6679 21.8284 65.5095 21.818C65.3706 21.809 65.2318 21.8044 65.0929 21.8044H64.2329C63.065 21.8044 61.9926 21.8874 61.0158 22.0533C60.0603 22.1985 59.2321 22.4578 58.5314 22.8311C57.8519 23.1837 57.321 23.6711 56.9388 24.2933C56.5566 24.8948 56.3655 25.6519 56.3655 26.5644C56.3655 27.2489 56.4822 27.8607 56.7158 28.4C56.9706 28.9393 57.3104 29.4059 57.7351 29.8C58.1598 30.1733 58.6588 30.4637 59.2321 30.6711C59.8267 30.8785 60.4637 30.9822 61.1432 30.9822C61.8227 30.9822 62.4279 30.9096 62.9588 30.7644C63.4897 30.6193 63.9568 30.443 64.3603 30.2356C64.7637 30.0074 65.1035 29.7585 65.3795 29.4889C65.5648 29.308 65.7294 29.127 65.8734 28.9461C65.9451 28.856 66.0117 28.7659 66.0732 28.6759C66.0864 28.6565 66.0994 28.6371 66.1121 28.6178H66.2714L66.9403 30.7956H68.8195C68.7751 30.6436 68.7342 30.488 68.697 30.3289C68.5922 29.8801 68.5162 29.4031 68.4692 28.8978C68.4055 28.2133 68.3736 27.4874 68.3736 26.72C68.3736 25.6622 68.4055 24.5422 68.4692 23.36C68.5329 22.1778 68.5647 20.9644 68.5647 19.72C68.5647 19.16 68.501 18.6 68.3736 18.04C68.2674 17.48 68.0338 16.9719 67.6729 16.5156C67.3331 16.0385 66.8235 15.6548 66.144 15.3644C65.4857 15.0741 64.6045 14.9289 63.5003 14.9289C62.3324 14.9289 61.2069 15.043 60.124 15.2711C59.0622 15.4993 58.1279 15.8519 57.321 16.3289L58.1173 18.1956C58.2512 18.1209 58.3936 18.0504 58.5447 17.9841C58.7291 17.9031 58.9264 17.8284 59.1366 17.76C59.54 17.6148 59.9541 17.5007 60.3788 17.4178C60.8247 17.3141 61.2494 17.2415 61.6529 17.2C62.0776 17.1378 62.4704 17.1067 62.8314 17.1067C64.063 17.1067 64.9124 17.3348 65.3795 17.7911C65.8467 18.2474 66.0803 19.0459 66.0803 20.1867C66.0803 20.5571 66.0626 20.9619 66.0274 21.4013ZM65.0926 26.9067L65.0994 26.8984C65.2868 26.6654 65.4198 26.451 65.5069 26.2551V24.2073C65.361 24.2024 65.2124 24.2 65.061 24.2H65.044L65.027 24.1988C64.741 24.1789 64.4551 24.1689 64.1692 24.1689C63.5315 24.1689 62.9049 24.2091 62.2893 24.2892L62.2824 24.2901L62.2754 24.2909C61.7006 24.3489 61.1972 24.4736 60.7604 24.6591L60.7556 24.6611L60.7508 24.663C60.3513 24.8227 60.036 25.0477 59.793 25.3355C59.6006 25.5674 59.4869 25.8814 59.4869 26.3156C59.4869 26.9136 59.6985 27.388 60.125 27.7731C60.5536 28.1397 61.1132 28.3378 61.844 28.3378C62.3954 28.3378 62.873 28.2709 63.2826 28.1448C63.7112 27.9918 64.0714 27.8146 64.3682 27.6164C64.6712 27.3934 64.9082 27.159 65.0863 26.9154L65.0926 26.9067ZM64.6469 27.9956C64.3072 28.2237 63.9037 28.4207 63.4366 28.5867C62.9694 28.7319 62.4385 28.8044 61.844 28.8044C61.0158 28.8044 60.3363 28.5763 59.8055 28.12C59.2746 27.643 59.0092 27.0415 59.0092 26.3156C59.0092 25.797 59.1472 25.3719 59.4232 25.04C59.7205 24.6874 60.1027 24.4178 60.5699 24.2311C61.0583 24.0237 61.6104 23.8889 62.2262 23.8267C62.8632 23.7437 63.5109 23.7022 64.1692 23.7022C64.4664 23.7022 64.7637 23.7126 65.061 23.7333C65.3795 23.7333 65.6874 23.7437 65.9847 23.7644V26.3467C65.8785 26.6163 65.7087 26.8963 65.4751 27.1867C65.2627 27.477 64.9867 27.7467 64.6469 27.9956ZM79.5638 27.9492L79.9827 30.8136L79.6747 30.9641C79.2752 31.1592 78.7459 31.3036 78.1102 31.4108C77.4976 31.5176 76.9486 31.5733 76.467 31.5733C75.418 31.5733 74.5153 31.2863 73.798 30.6823L73.7944 30.6794L73.791 30.6764C73.0288 30.0089 72.7084 28.9459 72.7084 27.6222V8.48889H76.2121V26.9067C76.2121 27.6034 76.3393 27.9871 76.4897 28.1707C76.6399 28.3542 76.8538 28.4622 77.1996 28.4622C77.4514 28.4622 77.7274 28.4433 78.0283 28.4041C78.3025 28.3684 78.6284 28.2858 79.0092 28.1488L79.5638 27.9492ZM78.0277 30.9511C78.6435 30.8474 79.1213 30.7126 79.461 30.5467L79.1744 28.5867C79.014 28.6444 78.8604 28.6939 78.7135 28.7352C78.4907 28.7979 78.2833 28.8417 78.0914 28.8667C77.7729 28.9081 77.4756 28.9289 77.1996 28.9289C76.7324 28.9289 76.3714 28.7733 76.1166 28.4622C75.8618 28.1511 75.7344 27.6326 75.7344 26.9067V8.95556H73.1862V27.6222C73.1862 28.8874 73.4941 29.7896 74.1099 30.3289C74.7257 30.8474 75.5114 31.1067 76.467 31.1067C76.9129 31.1067 77.4331 31.0548 78.0277 30.9511ZM88.3865 27.9492L88.8054 30.8136L88.4974 30.9641C88.098 31.1592 87.5686 31.3036 86.933 31.4108C86.3203 31.5176 85.7713 31.5733 85.2897 31.5733C84.2408 31.5733 83.338 31.2863 82.6207 30.6823L82.6172 30.6794L82.6137 30.6764C81.8515 30.0089 81.5312 28.9459 81.5312 27.6222V8.48889H85.0349V26.9067C85.0349 27.6034 85.162 27.9871 85.3124 28.1707C85.4627 28.3542 85.6765 28.4622 86.0223 28.4622C86.2741 28.4622 86.5501 28.4433 86.851 28.4041C87.1252 28.3684 87.4511 28.2858 87.8319 28.1488L88.3865 27.9492ZM86.8504 30.9511C87.4662 30.8474 87.944 30.7126 88.2837 30.5467L87.9971 28.5867C87.8367 28.6444 87.6831 28.6939 87.5362 28.7352C87.3134 28.7979 87.1061 28.8417 86.9141 28.8667C86.5956 28.9081 86.2983 28.9289 86.0223 28.9289C85.5551 28.9289 85.1941 28.7733 84.9393 28.4622C84.6845 28.1511 84.5571 27.6326 84.5571 26.9067V8.95556H82.0089V27.6222C82.0089 28.8874 82.3168 29.7896 82.9326 30.3289C83.5484 30.8474 84.3341 31.1067 85.2897 31.1067C85.7356 31.1067 86.2558 31.0548 86.8504 30.9511ZM102.775 29.6143L102.469 29.8533C101.775 30.3958 100.911 30.8138 99.8905 31.1172C98.8859 31.4223 97.8189 31.5733 96.6924 31.5733C95.4328 31.5733 94.3149 31.3792 93.3508 30.9756L93.3465 30.9738L93.3421 30.9719C92.3855 30.5491 91.5906 29.9549 90.9671 29.188L90.965 29.1854L90.963 29.1828C90.3468 28.4027 89.8964 27.4849 89.606 26.4376C89.317 25.395 89.1754 24.233 89.1754 22.9556C89.1754 20.2392 89.7938 18.0917 91.1048 16.5865C92.4245 15.0713 94.3011 14.3378 96.6605 14.3378C97.4182 14.3378 98.1747 14.4246 98.9295 14.5976C99.7195 14.7574 100.432 15.0773 101.063 15.5561C101.712 16.0494 102.223 16.7403 102.608 17.6025C103.006 18.4731 103.19 19.5926 103.19 20.9333C103.19 21.6454 103.124 22.426 102.994 23.2737L102.933 23.6711H92.7836C92.8108 24.36 92.8993 24.9726 93.0454 25.5117C93.2216 26.1622 93.4913 26.7022 93.8468 27.142C94.1955 27.5531 94.6486 27.8815 95.2173 28.1237C95.8045 28.3441 96.5361 28.4622 97.425 28.4622C98.0896 28.4622 98.7579 28.3478 99.4319 28.1155C100.122 27.8776 100.594 27.6144 100.888 27.3446L101.349 26.9208L102.775 29.6143ZM95.0361 28.5556C94.3991 28.2859 93.8788 27.9126 93.4753 27.4356C93.0719 26.9378 92.7746 26.3363 92.5835 25.6311C92.4256 25.0486 92.333 24.3952 92.3055 23.6711C92.2997 23.5187 92.2968 23.3631 92.2968 23.2044H102.521C102.649 22.3748 102.712 21.6178 102.712 20.9333C102.712 19.6267 102.532 18.5793 102.171 17.7911C101.81 16.9822 101.343 16.36 100.769 15.9244C100.196 15.4889 99.5484 15.1985 98.8265 15.0533C98.1045 14.8874 97.3825 14.8044 96.6605 14.8044C94.4097 14.8044 92.6791 15.4993 91.4687 16.8889C90.2583 18.2785 89.6531 20.3007 89.6531 22.9556C89.6531 24.2 89.7912 25.32 90.0672 26.3156C90.3433 27.3111 90.7679 28.1719 91.3413 28.8978C91.9146 29.603 92.6472 30.1526 93.5391 30.5467C94.4309 30.92 95.482 31.1067 96.6924 31.1067C97.7753 31.1067 98.7946 30.9615 99.7502 30.6711C100.727 30.3807 101.534 29.9867 102.171 29.4889L101.215 27.6844C101.105 27.7861 100.977 27.8839 100.833 27.9778C100.506 28.1903 100.092 28.3829 99.5909 28.5556C98.8689 28.8044 98.147 28.9289 97.425 28.9289C96.4907 28.9289 95.6944 28.8044 95.0361 28.5556ZM98.958 18.2683L98.9553 18.2655C98.4513 17.7393 97.7207 17.4489 96.6924 17.4489C95.5268 17.4489 94.6388 17.7459 93.9808 18.2982C93.4434 18.7645 93.0507 19.5638 92.8668 20.7778H99.7402C99.6837 19.5068 99.3921 18.7069 98.9607 18.271L98.958 18.2683ZM100.218 20.7778C100.225 20.9284 100.228 21.0839 100.228 21.2444H92.3287C92.344 21.084 92.3625 20.9285 92.3842 20.7778C92.5725 19.467 92.9999 18.5233 93.6665 17.9467C94.4309 17.3037 95.4395 16.9822 96.6924 16.9822C97.8178 16.9822 98.6884 17.3037 99.3042 17.9467C99.8573 18.5055 100.162 19.4492 100.218 20.7778ZM103.662 14.7111H106.146V11.7464L109.65 10.7625V14.7111H113.982V17.8222H109.65V25.9733C109.65 27.0341 109.79 27.6913 109.995 28.034C110.162 28.2939 110.449 28.4622 110.988 28.4622C111.506 28.4622 111.924 28.4138 112.25 28.3267C112.617 28.2069 113.028 28.0565 113.483 27.8747L113.972 27.6792L114.81 30.4528L114.444 30.6249C113.839 30.9096 113.181 31.1377 112.473 31.3105C111.752 31.4867 110.98 31.5733 110.16 31.5733C108.784 31.5733 107.692 31.197 107.036 30.3253L107.034 30.3228L107.032 30.3201C106.411 29.4711 106.146 28.1437 106.146 26.44V17.8222H103.662V14.7111ZM106.624 17.3556V26.44C106.624 28.12 106.89 29.323 107.42 30.0489C107.951 30.7541 108.864 31.1067 110.16 31.1067C110.945 31.1067 111.678 31.0237 112.358 30.8578C113.037 30.6919 113.663 30.4741 114.237 30.2044L113.663 28.3067C113.51 28.3679 113.362 28.4257 113.218 28.4802C112.922 28.592 112.646 28.6897 112.389 28.7733C112.007 28.877 111.54 28.9289 110.988 28.9289C110.33 28.9289 109.862 28.7111 109.586 28.2756C109.31 27.8193 109.172 27.0519 109.172 25.9733V17.3556H113.504V15.1778H109.172V11.3822L106.624 12.0978V15.1778H104.14V17.3556H106.624Z" fill="white"/>
<defs>
<linearGradient id="paint0_linear_1_7796" x1="14.3364" y1="7.97777" x2="14.3336" y2="19.4445" gradientUnits="userSpaceOnUse">
<stop offset="0.160259" stop-color="#5C3DF5"/>
<stop offset="0.289301" stop-color="#5C3DF5"/>
<stop offset="1" stop-color="#381F9B"/>
</linearGradient>
<linearGradient id="paint1_linear_1_7796" x1="-0.833523" y1="35.3333" x2="9.61092" y2="20.7778" gradientUnits="userSpaceOnUse">
<stop offset="0.160259" stop-color="#5C3DF5"/>
<stop offset="0.445025" stop-color="#5C3DF5"/>
<stop offset="0.885315" stop-color="#381F9B"/>
</linearGradient>
<clipPath id="clip0_1_7796">
<rect width="33" height="40" fill="white"/>
</clipPath>
</defs>
</svg>
