<svg width="38" height="38" viewBox="0 0 38 38" fill="none" xmlns="http://www.w3.org/2000/svg">
<rect width="38" height="38" rx="19" fill="#515165"/>
<path fill-rule="evenodd" clip-rule="evenodd" d="M26.6657 15.7211C26.4817 15.0437 25.9395 14.5101 25.2511 14.329C24.0033 14 19 14 19 14C19 14 13.9967 14 12.7489 14.329C12.0605 14.5101 11.5183 15.0437 11.3343 15.7211C11 16.9491 11 19.5111 11 19.5111C11 19.5111 11 22.0731 11.3343 23.3011C11.5183 23.9786 12.0605 24.4899 12.7489 24.671C13.9967 25 19 25 19 25C19 25 24.0033 25 25.2511 24.671C25.9395 24.4899 26.4817 23.9786 26.6657 23.3011C27 22.0731 27 19.5111 27 19.5111C27 19.5111 27 16.9491 26.6657 15.7211ZM17 22V17L21 19.5001L17 22Z" fill="#F4F4F9"/>
</svg>
