<svg width="15" height="15" viewBox="0 0 15 15" fill="none" xmlns="http://www.w3.org/2000/svg">
<path d="M13.5 7.5C13.4999 6.16266 13.0529 4.8637 12.2302 3.80939C11.4074 2.75508 10.2561 2.00586 8.95885 1.6807C7.66164 1.35554 6.29298 1.47308 5.07021 2.01465C3.84744 2.55623 2.84065 3.49079 2.20972 4.66994C1.57878 5.84909 1.35987 7.20523 1.58774 8.52301C1.81562 9.84079 2.47722 11.0447 3.46748 11.9435C4.45774 12.8423 5.7199 13.3845 7.05353 13.484C8.38716 13.5835 9.71581 13.2346 10.8285 12.4927L11.661 13.7407C10.4297 14.564 8.98122 15.0024 7.5 15C3.35775 15 0 11.6422 0 7.5C0 3.35775 3.35775 0 7.5 0C11.6423 0 15 3.35775 15 7.5V8.62499C15.0001 9.18656 14.8201 9.73335 14.4864 10.185C14.1528 10.6367 13.683 10.9695 13.1463 11.1345C12.6095 11.2995 12.0339 11.288 11.5042 11.1017C10.9744 10.9154 10.5184 10.5641 10.203 10.0995C9.70243 10.62 9.06222 10.9849 8.35929 11.1503C7.65635 11.3158 6.9206 11.2748 6.24042 11.0322C5.56024 10.7896 4.96457 10.3558 4.52498 9.78285C4.08538 9.20993 3.82056 8.52226 3.76233 7.80247C3.7041 7.08268 3.85494 6.36139 4.19672 5.72525C4.5385 5.08911 5.05669 4.56519 5.68903 4.21642C6.32137 3.86766 7.04096 3.70889 7.76134 3.7592C8.48173 3.8095 9.17227 4.06674 9.75 4.5H11.25V8.62499C11.25 8.92336 11.3685 9.20951 11.5795 9.42049C11.7905 9.63147 12.0766 9.74999 12.375 9.74999C12.6734 9.74999 12.9595 9.63147 13.1705 9.42049C13.3815 9.20951 13.5 8.92336 13.5 8.62499V7.5ZM7.5 5.25C6.90326 5.25 6.33097 5.48705 5.90901 5.90901C5.48705 6.33096 5.25 6.90326 5.25 7.5C5.25 8.09673 5.48705 8.66903 5.90901 9.09098C6.33097 9.51294 6.90326 9.74999 7.5 9.74999C8.09674 9.74999 8.66903 9.51294 9.09099 9.09098C9.51295 8.66903 9.75 8.09673 9.75 7.5C9.75 6.90326 9.51295 6.33096 9.09099 5.90901C8.66903 5.48705 8.09674 5.25 7.5 5.25Z" fill="#B6B6B6"/>
</svg>
