<svg width="698" height="346" viewBox="0 0 698 346" fill="none" xmlns="http://www.w3.org/2000/svg">
<path d="M456.865 130.323C471.807 159.018 519.197 165.587 562.713 144.995C606.229 124.402 636.689 62.8777 614.452 55.751C592.215 48.6245 591.063 101.559 547.546 122.152C503.161 147.074 446.347 105.691 456.865 130.323Z" fill="#FFB96A"/>
<g opacity="0.6" filter="url(#filter0_f_968_369)">
<ellipse rx="129.444" ry="43.7637" transform="matrix(0.995886 -0.0906186 0.0996261 0.995025 399.271 241.021)" fill="#1F1F41"/>
</g>
<path d="M270.475 235.174C255.155 244.904 244.956 250.521 245.024 257.467C245.123 267.638 263.462 265.136 274.944 259.458C285.335 254.319 294.002 258.92 301.251 246.951C302.555 244.797 302.289 241.129 301.249 236.704C296.345 233.455 288.251 226.798 270.475 235.174Z" fill="url(#paint0_linear_968_369)"/>
<path d="M73 258.985C86.9079 272.814 173.625 287.822 244.565 233.625C253.121 227.087 258.805 221.883 267 215.862" stroke="#FF8401" stroke-width="2.04752" stroke-linecap="square"/>
<path d="M303.362 187.484L302.561 188.121L303.837 189.723L304.638 189.085L303.362 187.484ZM309.602 185.309L310.43 184.707L309.226 183.051L308.398 183.653L309.602 185.309ZM304.638 189.085C306.25 187.802 307.906 186.542 309.602 185.309L308.398 183.653C306.678 184.903 304.998 186.181 303.362 187.484L304.638 189.085Z" fill="#FF8401"/>
<path fill-rule="evenodd" clip-rule="evenodd" d="M270.898 237.147C278.873 261.319 335.982 283.311 439.536 263.77C506.444 251.145 522.962 210.972 522.793 183.98C521.384 169.454 518.432 157.652 513.028 151.169C500.11 135.675 454.551 104.615 397.523 137.105C390.654 141.019 381.373 148.387 371.654 156.101C355.816 168.674 338.818 182.168 329.209 183.133C270.396 189.036 263.737 215.441 270.898 237.147Z" fill="#FFB96A"/>
<mask id="mask0_968_369" style="mask-type:alpha" maskUnits="userSpaceOnUse" x="258" y="119" width="265" height="151">
<path fill-rule="evenodd" clip-rule="evenodd" d="M258.239 197.344C257.996 193.924 262.636 194.549 270.913 197.223C273.732 198.135 276.305 199.177 278.472 200.157C284.648 194.428 294.034 189.56 307.679 186.239C307.894 184.325 308.204 182.253 308.647 180.109C310.526 171.012 312.497 166.408 315.951 168.567C318.265 170.014 323.848 176.896 328.112 182.828C328.381 182.8 328.651 182.772 328.922 182.745C338.274 181.807 354.625 167.963 370.091 154.868C380.263 146.256 390.052 137.968 397.217 133.887C454.229 101.412 499.776 132.457 512.69 147.943C518.093 154.423 521.043 166.22 522.452 180.738C522.621 207.718 501.395 252.145 434.225 263.341C336.111 279.695 278.599 260.896 270.627 236.735C268.749 231.044 267.822 225.03 268.537 219.148C268.496 219.091 268.454 219.033 268.413 218.974C265.42 214.731 258.482 200.763 258.239 197.344Z" fill="#F9B466"/>
</mask>
<g mask="url(#mask0_968_369)">
<path fill-rule="evenodd" clip-rule="evenodd" d="M258.239 197.344C257.996 193.924 262.636 194.549 270.913 197.223C273.732 198.135 276.305 199.177 278.472 200.157C284.648 194.428 294.034 189.56 307.679 186.239C307.894 184.325 308.204 182.253 308.647 180.109C310.526 171.012 312.497 166.408 315.951 168.567C318.265 170.014 323.848 176.896 328.112 182.828C328.381 182.8 328.651 182.772 328.922 182.745C338.274 181.807 354.625 167.963 370.091 154.868C380.263 146.256 390.052 137.968 397.217 133.887C454.229 101.412 499.776 132.457 512.69 147.943C518.093 154.423 521.043 166.22 522.452 180.738C522.621 207.718 501.395 252.145 434.225 263.341C336.111 279.695 278.599 260.896 270.627 236.735C268.749 231.044 267.822 225.03 268.537 219.148C268.496 219.091 268.454 219.033 268.413 218.974C265.42 214.731 258.482 200.763 258.239 197.344Z" fill="#FFB96A"/>
<ellipse rx="29.7999" ry="36.5416" transform="matrix(0.940112 -0.384779 0.405518 0.89645 256.832 193.41)" fill="#E5A05C"/>
<ellipse rx="43.7227" ry="57.8116" transform="matrix(-0.334494 -0.925581 0.96516 -0.31539 399.171 138.141)" fill="#E5A05C"/>
</g>
<path d="M265.527 237.806C265.043 237.515 264.414 237.672 264.123 238.156C263.831 238.641 263.988 239.27 264.473 239.561L265.527 237.806ZM300.323 270.995C290.862 267.844 285.702 261.803 281.153 255.386C276.643 249.024 272.627 242.073 265.527 237.806L264.473 239.561C271.101 243.546 274.812 249.982 279.483 256.571C284.115 263.105 289.592 269.58 299.677 272.938L300.323 270.995Z" fill="#FF8401"/>
<path d="M337 212.058C337 212.058 348.072 208.243 359.657 211.667" stroke="#E5A05C" stroke-width="1.37628" stroke-miterlimit="10" stroke-linecap="round"/>
<path d="M334 207.303C334 207.303 341.521 198.742 353.067 196.162" stroke="#E5A05C" stroke-width="1.37628" stroke-miterlimit="10" stroke-linecap="round"/>
<path d="M281 232.979C281 232.979 269.38 237.024 262.789 246.856" stroke="#E5A05C" stroke-width="1.37628" stroke-miterlimit="10" stroke-linecap="round"/>
<path d="M280 227.273C280 227.273 267.95 224.899 256.856 229.635" stroke="#E5A05C" stroke-width="1.37628" stroke-miterlimit="10" stroke-linecap="round"/>
<path d="M308.801 221.826C307.531 222.403 300.748 220.965 306.911 218.219C313.087 215.453 310.079 221.282 308.801 221.826Z" fill="#3F3D56"/>
<path d="M315.916 209.92C316.736 209.806 317.304 209.082 317.184 208.302C317.065 207.523 316.304 206.983 315.484 207.097C314.665 207.211 314.097 207.935 314.216 208.715C314.335 209.494 315.096 210.034 315.916 209.92Z" fill="#3F3D56"/>
<path d="M472.236 185.378C457.714 193.369 453.341 212.062 462.468 227.13C467.044 234.683 472.434 241.145 479.662 244.711C470.887 259.579 465.081 273.122 473.681 277.195C480.326 280.343 502.456 267.717 511.216 244.64C524.936 220.902 531.407 192.105 516.79 158.41C513.514 150.858 485.25 170.947 472.236 185.378Z" fill="#FFB96A"/>
<path d="M472.307 186.019C457.788 194.008 453.405 212.678 462.516 227.719C467.084 235.259 472.466 241.709 479.687 245.266C470.908 260.118 465.095 273.646 473.687 277.708C480.326 280.847 502.451 268.225 511.221 245.175C521.75 226.988 531.215 196.513 517.284 157.771" stroke="#E5A05C" stroke-width="2.04752" stroke-linecap="round"/>
<path d="M292.916 218.478C293.736 218.365 294.304 217.64 294.184 216.861C294.065 216.081 293.304 215.541 292.484 215.655C291.665 215.769 291.097 216.494 291.216 217.273C291.335 218.053 292.096 218.592 292.916 218.478Z" fill="#3F3D56"/>
<path d="M348.463 243.279C362.779 238.966 356.846 245.978 359.647 256.213C382.748 245.565 427.705 229.217 422.732 249.015C417.76 268.813 378.873 274.755 360.051 275.251C332.613 283.847 302.547 287.983 299.746 277.748C296.484 265.827 324.145 256.16 348.463 243.279Z" fill="url(#paint1_linear_968_369)"/>
<path d="M348.458 243.212C324.114 256.02 296.437 265.658 299.662 277.439C299.869 278.198 300.23 278.876 300.732 279.477M300.732 279.477C306.923 286.904 334.55 282.737 359.941 274.802C379.572 273.991 422.581 267.38 431.265 237.27M300.732 279.477C301.968 278.893 303.523 277.647 307.369 276.339M299.821 273.149C301.163 272.292 303.791 271.106 305.111 270.647" stroke="#E5A05C" stroke-width="2.04752" stroke-linecap="round"/>
<path d="M387.831 193.436L388.49 192.653L387.831 193.436ZM402.29 279.405L402.445 278.393L402.29 279.405ZM326.29 251.841L326.733 252.764L326.733 252.764L326.29 251.841ZM449.728 160.079L449.346 161.03L449.346 161.03L449.728 160.079ZM549.33 129.957L548.408 129.513L549.33 129.957ZM584.943 138.97L584.108 138.377L584.108 138.377L584.943 138.97ZM580.391 89.8859L581.037 90.6799L580.391 89.8859ZM611.928 136.066C611.748 136.602 612.036 137.183 612.572 137.363C613.108 137.543 613.689 137.254 613.869 136.718L611.928 136.066ZM329.354 181.558C328.805 181.691 328.468 182.245 328.601 182.795C328.735 183.344 329.289 183.681 329.838 183.547L329.354 181.558ZM315.392 256.923C314.937 257.259 314.841 257.9 315.177 258.355C315.513 258.809 316.154 258.906 316.608 258.57L315.392 256.923ZM570.549 106.492C571.036 106.204 571.197 105.576 570.909 105.09C570.621 104.603 569.993 104.442 569.506 104.73L570.549 106.492ZM593.249 123.872C593.412 123.331 593.105 122.76 592.563 122.597C592.022 122.435 591.451 122.742 591.288 123.283L593.249 123.872ZM585.2 87.336C585.642 86.9841 585.716 86.34 585.364 85.8975C585.012 85.455 584.368 85.3816 583.925 85.7335L585.2 87.336ZM613.864 96.9289C613.677 96.3955 613.092 96.1152 612.559 96.3029C612.025 96.4905 611.745 97.0749 611.933 97.6083L613.864 96.9289ZM387.172 194.22C414.218 216.959 422.851 238.98 422.301 254.746C422.026 262.638 419.456 268.955 415.764 273.082C412.078 277.203 407.291 279.138 402.445 278.393L402.134 280.417C407.773 281.284 413.221 278.996 417.29 274.447C421.354 269.903 424.059 263.102 424.348 254.817C424.926 238.227 415.846 215.652 388.49 192.653L387.172 194.22ZM402.445 278.393C395.809 277.373 390.683 273.878 385.962 269.417C383.598 267.183 381.356 264.728 379.074 262.233C376.802 259.748 374.492 257.224 372.027 254.906C367.091 250.262 361.463 246.37 354.045 245.119C346.632 243.868 337.585 245.278 325.847 250.919L326.733 252.764C338.232 247.239 346.84 245.979 353.704 247.138C360.563 248.295 365.835 251.892 370.624 256.397C373.023 258.654 375.283 261.121 377.563 263.615C379.834 266.099 382.127 268.611 384.556 270.905C389.421 275.502 394.914 279.308 402.134 280.417L402.445 278.393ZM449.346 161.03C476.929 172.096 498.787 171.52 515.475 164.573C532.148 157.633 543.517 144.395 550.253 130.401L548.408 129.513C541.836 143.167 530.794 155.979 514.689 162.683C498.599 169.38 477.309 170.042 450.109 159.129L449.346 161.03ZM584.108 138.377C579.687 144.6 575.098 146.337 571.378 145.503C567.587 144.653 564.188 141.034 562.418 135.445C558.902 124.345 562.105 106.088 581.037 90.6799L579.744 89.0919C560.275 104.938 556.655 124.031 560.466 136.063C562.36 142.04 566.162 146.432 570.93 147.501C575.771 148.586 581.1 146.147 585.777 139.563L584.108 138.377ZM329.838 183.547C349.838 178.677 370.518 180.217 387.172 194.22L388.49 192.653C371.174 178.094 349.748 176.592 329.354 181.558L329.838 183.547ZM325.847 250.919C321.273 253.116 317.852 255.105 315.392 256.923L316.608 258.57C318.926 256.857 322.222 254.932 326.733 252.764L325.847 250.919ZM550.253 130.401C555.765 118.948 565.425 109.523 570.549 106.492L569.506 104.73C564.009 107.981 554.083 117.724 548.408 129.513L550.253 130.401ZM591.288 123.283C590.305 126.558 588.336 132.425 584.108 138.377L585.777 139.563C590.195 133.345 592.24 127.231 593.249 123.872L591.288 123.283ZM581.037 90.6799C581.922 89.9598 582.962 89.1241 583.782 88.4676C584.192 88.1395 584.547 87.8565 584.799 87.6556C584.925 87.5551 585.025 87.4752 585.094 87.4204C585.128 87.393 585.155 87.3719 585.173 87.3576C585.182 87.3505 585.188 87.3451 585.193 87.3415C585.195 87.3396 585.197 87.3383 585.198 87.3374C585.199 87.3369 585.199 87.3366 585.199 87.3364C585.2 87.3362 585.2 87.3362 585.2 87.3361C585.2 87.3361 585.2 87.3361 585.2 87.3361C585.2 87.336 585.2 87.336 584.563 86.5348C583.925 85.7335 583.925 85.7336 583.925 85.7336C583.925 85.7336 583.925 85.7336 583.925 85.7336C583.925 85.7337 583.925 85.7338 583.925 85.7339C583.925 85.7342 583.924 85.7345 583.924 85.735C583.922 85.7359 583.921 85.7373 583.918 85.7391C583.914 85.7428 583.907 85.7483 583.898 85.7555C583.88 85.7698 583.853 85.7911 583.818 85.8186C583.749 85.8737 583.649 85.9539 583.522 86.0547C583.269 86.2562 582.914 86.54 582.503 86.869C581.681 87.5266 580.636 88.3665 579.744 89.0919L581.037 90.6799ZM323.675 176.381C337.16 166.663 358.721 158.853 381.901 155.469C405.075 152.086 429.711 153.152 449.346 161.03L450.109 159.129C430.026 151.072 404.996 150.029 381.605 153.443C358.218 156.857 336.312 164.75 322.478 174.72L323.675 176.381ZM611.933 97.6083C615.819 108.657 616.161 123.467 611.928 136.066L613.869 136.718C618.246 123.688 617.903 108.41 613.864 96.9289L611.933 97.6083Z" fill="#FF8401"/>
<path opacity="0.8" d="M193.988 131.206C187.243 141.63 137.823 149.577 93.8041 140.963C66.3451 135.591 47.2951 110.69 208.261 115.884C228.126 116.525 250.152 122.464 254.363 127.365C258.573 132.266 259.303 157.115 72.3291 158.112" stroke="#35438E" stroke-width="2" stroke-linecap="round"/>
<g opacity="0.88">
<path opacity="0.88" d="M612.854 330.063C637.412 338.056 664.174 325.616 672.628 302.278C681.082 278.94 668.026 253.542 643.467 245.549C618.908 237.556 592.146 249.996 583.692 273.334C575.239 296.672 588.295 322.071 612.854 330.063Z" fill="#41C6A7"/>
<g opacity="0.88">
<path opacity="0.88" d="M636.291 281.883L638.461 275.902L653.311 280.734L656.611 271.62L616.181 258.461L612.881 267.575L627.731 272.409L625.561 278.385C613.311 274.968 603.441 274.216 602.481 276.854C601.521 279.492 609.811 284.649 621.681 289.089L614.741 308.248L625.481 311.743L632.421 292.582C644.651 295.99 654.511 296.737 655.461 294.101C656.421 291.466 648.161 286.319 636.301 281.886L636.291 281.883ZM633.011 290.959V290.954C632.701 290.873 631.111 290.453 627.651 289.325C624.881 288.423 622.951 287.716 622.281 287.46V287.468C611.771 283.562 604.431 279.262 605.171 277.216C605.921 275.168 614.491 276.051 625.311 279.085L622.891 285.764C623.581 286.036 625.531 286.794 628.291 287.691C631.601 288.769 633.311 289.183 633.631 289.257L636.051 282.578C646.531 286.478 653.851 290.774 653.111 292.814C652.371 294.854 643.811 293.98 633.011 290.954" fill="white"/>
</g>
<path opacity="0.88" d="M613.147 331.219C638.228 339.382 665.56 326.678 674.194 302.844C682.828 279.01 669.495 253.07 644.414 244.907C619.332 236.744 592.001 249.448 583.367 273.282C574.732 297.116 588.066 323.056 613.147 331.219Z" fill="#5B64FF"/>
<g opacity="0.88">
<path opacity="0.88" d="M639.661 259.123L638.801 260.303L625.081 298.174L625.331 298.683L646.691 294.018L639.661 259.123Z" fill="white"/>
<path opacity="0.88" d="M639.281 258.998L610.731 282.316L624.941 298.558L631.601 280.176L639.281 258.998Z" fill="white"/>
<path opacity="0.88" d="M623.951 301.99L623.631 302.187L618.661 315.897L618.651 316.611L645.531 297.216L623.951 301.99Z" fill="white"/>
<path opacity="0.88" d="M618.431 316.54L623.731 301.92L609.571 285.515L618.431 316.54Z" fill="white"/>
</g>
</g>
<path d="M102.613 264.479C120.832 258.438 130.505 239.418 124.177 222.029C117.85 204.64 97.9716 195.442 79.753 201.483C61.5345 207.525 51.8614 226.544 58.1889 243.933C64.5164 261.323 84.4095 270.537 102.613 264.479Z" fill="#FF8400"/>
<path d="M101.854 231.548C101.273 230.904 100.476 230.514 99.5973 230.39C99.0524 230.294 98.4666 230.259 97.903 230.322C98.1887 230.043 98.4448 229.728 98.6379 229.376C98.9163 228.871 99.0836 228.309 99.0841 227.732C99.0697 227.137 98.933 226.58 98.7258 226.049C98.4113 225.14 97.8151 224.334 97.0406 223.754C96.2254 223.234 95.2802 222.959 94.2866 222.953C93.3301 222.918 92.3698 223.059 91.4427 223.347L90.1368 219.69L88.3072 221.919L89.1063 224.153L87.2446 224.793L86.4086 222.443L83.5357 221.936L84.8416 225.593L79.735 227.313L82.3582 229.514C82.6957 229.367 83.0739 229.303 83.4298 229.286C83.63 229.304 83.7894 229.382 83.9265 229.506C84.145 229.798 84.293 230.115 84.3854 230.476L87.922 240.388C88.07 240.705 88.1625 241.066 88.1548 241.418C88.1176 241.591 88.1508 241.738 87.9839 241.868C87.8317 242.015 87.8169 241.998 87.3237 242.179L86.2458 245.613L91.319 243.89L92.6249 247.547L95.028 246.746L93.7221 243.089L95.5986 242.467L96.9045 246.124L99.2556 245.335L97.9535 241.646C99.1328 241.22 100.231 240.626 101.229 239.879C102.137 239.173 102.82 238.238 103.196 237.197C103.475 236.115 103.42 235.004 103.072 233.947C102.821 233.075 102.41 232.27 101.854 231.548ZM88.3174 227.852L88.2915 227.786L89.9232 227.239C90.8355 226.933 93.7915 225.587 94.7349 228.026C95.6636 230.448 91.551 231.741 91.551 231.741L89.9193 232.289L89.8564 232.107L88.3174 227.852ZM90.7997 234.834L92.6761 234.212C93.0618 234.085 94.3894 233.688 94.8604 233.553C95.0532 233.489 95.2757 233.461 95.4611 233.461C95.5278 233.466 95.6131 233.458 95.6798 233.464C96.0172 233.461 96.3323 233.504 96.6251 233.594C96.8216 233.643 97.0143 233.724 97.1699 233.834C97.4182 234.016 97.6442 234.244 97.833 234.501C97.9626 234.689 98.0589 234.873 98.1366 235.072C98.292 235.471 98.3436 235.892 98.2469 236.285C98.113 236.85 97.8011 237.352 97.3522 237.73C96.5101 238.442 95.5383 238.967 94.4851 239.324L92.6086 239.946L90.7997 234.834Z" fill="white"/>
<path d="M175 140C191.569 140 205 127.241 205 111.5C205 95.7599 191.569 83 175 83C158.431 83 145 95.7599 145 111.5C145 127.241 158.431 140 175 140Z" fill="#354390"/>
<path opacity="0.8" d="M187.777 99.0556L183.325 101.304L161.811 112.154C161.505 109.823 161.859 107.452 162.833 105.308C163.808 103.164 165.364 101.33 167.33 100.011C169.296 98.6914 171.593 97.9389 173.965 97.8371C176.337 97.7353 178.691 98.2882 180.765 99.434L183.314 98.1482L183.694 97.9553C181.276 96.2178 178.407 95.2017 175.424 95.027C172.442 94.8524 169.472 95.5264 166.864 96.9695C164.256 98.4126 162.12 100.565 160.707 103.171C159.294 105.778 158.665 108.731 158.892 111.68C158.934 112.235 158.81 112.79 158.535 113.275C158.26 113.76 157.846 114.154 157.345 114.406L156 115.086V118.253L159.958 116.254L161.24 115.606L162.503 114.968L185.182 103.525L187.73 102.241L192.998 99.5828V96.4179L187.777 99.0556ZM193 102.751L163.794 117.476L161.246 118.761L156.002 121.412V124.577L161.21 121.95L165.664 119.702L187.2 108.835C187.511 111.17 187.16 113.545 186.185 115.694C185.211 117.843 183.652 119.681 181.682 121.002C179.713 122.323 177.411 123.076 175.035 123.175C172.658 123.274 170.3 122.717 168.226 121.564L168.068 121.647L165.304 123.043C167.722 124.781 170.593 125.799 173.576 125.973C176.559 126.147 179.53 125.473 182.139 124.03C184.747 122.586 186.883 120.433 188.296 117.825C189.708 115.217 190.337 112.263 190.108 109.313C190.066 108.758 190.19 108.204 190.465 107.719C190.74 107.235 191.153 106.841 191.653 106.589L193 105.909V102.753V102.751Z" fill="white"/>
<path opacity="0.88" d="M595.38 319C577.89 309.533 560.753 268.182 581.541 247.33C607.868 220.917 638.743 241.642 637.986 196" stroke="#5B64FF" stroke-width="2" stroke-linecap="round"/>
<mask id="mask1_968_369" style="mask-type:alpha" maskUnits="userSpaceOnUse" x="0" y="30" width="698" height="316">
<path d="M693.638 30H4.3625C1.95316 30 0 33.5817 0 38V338C0 342.418 1.95316 346 4.3625 346H693.638C696.047 346 698 342.418 698 338V38C698 33.5817 696.047 30 693.638 30Z" fill="url(#paint2_linear_968_369)"/>
</mask>
<g mask="url(#mask1_968_369)">
</g>
<defs>
<filter id="filter0_f_968_369" x="244.285" y="169.912" width="309.973" height="142.219" filterUnits="userSpaceOnUse" color-interpolation-filters="sRGB">
<feFlood flood-opacity="0" result="BackgroundImageFix"/>
<feBlend mode="normal" in="SourceGraphic" in2="BackgroundImageFix" result="shape"/>
<feGaussianBlur stdDeviation="13" result="effect1_foregroundBlur_968_369"/>
</filter>
<linearGradient id="paint0_linear_968_369" x1="207.024" y1="277.53" x2="211.125" y2="212.79" gradientUnits="userSpaceOnUse">
<stop offset="0.265625" stop-color="#E7A25D"/>
<stop offset="0.729167" stop-color="#FFB96A"/>
</linearGradient>
<linearGradient id="paint1_linear_968_369" x1="257.643" y1="300.13" x2="320.088" y2="346.831" gradientUnits="userSpaceOnUse">
<stop offset="0.0677083" stop-color="#E7A25D"/>
<stop offset="0.572917" stop-color="#FFB96A"/>
</linearGradient>
<linearGradient id="paint2_linear_968_369" x1="-2.6235e-05" y1="126.01" x2="706.715" y2="177.748" gradientUnits="userSpaceOnUse">
<stop offset="0.343012" stop-color="#3E59BB"/>
<stop offset="0.492778" stop-color="#3F55B4"/>
<stop offset="0.911458" stop-color="#3F418D"/>
</linearGradient>
</defs>
</svg>
