<svg width="14" height="15" viewBox="0 0 14 15" fill="none" xmlns="http://www.w3.org/2000/svg">
<path d="M4.95133 6.67753C5.68115 7.95968 6.74296 9.02149 8.02511 9.7513L8.71267 8.78841C8.82323 8.63359 8.98672 8.52465 9.17218 8.48223C9.35765 8.4398 9.55223 8.46683 9.71911 8.55819C10.8191 9.15936 12.0339 9.52091 13.2837 9.61908C13.4787 9.63454 13.6608 9.72294 13.7935 9.86666C13.9263 10.0104 14 10.1989 14 10.3945V13.865C14 14.0575 13.9286 14.2433 13.7996 14.3862C13.6706 14.5292 13.4931 14.6192 13.3016 14.6389C12.8893 14.6816 12.474 14.7026 12.0556 14.7026C5.39778 14.7026 0 9.30486 0 2.64708C0 2.22864 0.021 1.8133 0.0637778 1.40108C0.0834203 1.20951 0.173432 1.03204 0.316392 0.903019C0.459352 0.773996 0.645094 0.702595 0.837667 0.702637H4.30811C4.50377 0.702612 4.69225 0.776332 4.83597 0.909098C4.9797 1.04186 5.0681 1.22392 5.08356 1.41897C5.18173 2.6687 5.54328 3.8835 6.14444 4.98353C6.23581 5.15041 6.26283 5.34499 6.22041 5.53046C6.17798 5.71592 6.06905 5.8794 5.91422 5.98997L4.95133 6.67753ZM2.98978 6.16653L4.46756 5.11108C4.04816 4.20582 3.76083 3.24507 3.61433 2.25819H1.56333C1.55867 2.3873 1.55633 2.51719 1.55633 2.64708C1.55556 8.44619 6.25644 13.1471 12.0556 13.1471C12.1854 13.1471 12.3153 13.1447 12.4444 13.1393V11.0883C11.4576 10.9418 10.4968 10.6545 9.59155 10.2351L8.53611 11.7129C8.11118 11.5477 7.69845 11.3528 7.301 11.1295L7.25589 11.1039C5.73034 10.2356 4.467 8.9723 3.59878 7.44675L3.57311 7.40164C3.34982 7.00419 3.15489 6.59145 2.98978 6.16653Z" fill="#B6B6B6"/>
</svg>
