<svg width="18" height="18" viewBox="0 0 18 18" fill="none" xmlns="http://www.w3.org/2000/svg">
<path d="M6.1416 6.6952L9.027 8.8732L11.8557 6.6976L12.4443 7.3028L9.03285 9.9268L5.55885 7.3048L6.1416 6.6952Z" fill="#3139CE"/>
<path fill-rule="evenodd" clip-rule="evenodd" d="M9 18C13.9706 18 18 13.9706 18 9C18 4.02944 13.9706 0 9 0C4.02944 0 0 4.02944 0 9C0 13.9706 4.02944 18 9 18ZM13.3682 5.51716C13.2838 5.44214 13.1693 5.4 13.05 5.4H4.95C4.83065 5.4 4.71619 5.44214 4.6318 5.51716C4.54741 5.59217 4.5 5.69391 4.5 5.8V12.2C4.5 12.3061 4.54741 12.4078 4.6318 12.4828C4.71619 12.5579 4.83065 12.6 4.95 12.6H13.05C13.1693 12.6 13.2838 12.5579 13.3682 12.4828C13.4526 12.4078 13.5 12.3061 13.5 12.2V5.8C13.5 5.69391 13.4526 5.59217 13.3682 5.51716Z" fill="#3139CE"/>
</svg>
