<svg width="140" height="24" viewBox="0 0 140 24" fill="none" xmlns="http://www.w3.org/2000/svg">
<path d="M8.06641 20V17.26H1.32641V15.78L7.16641 6.04H9.66641V15.86H11.6864V17.26H9.66641V20H8.06641ZM2.90641 15.86H8.06641V7.34H7.96641L2.90641 15.86ZM15.2786 20.24C14.8519 20.24 14.5386 20.1333 14.3386 19.92C14.1519 19.7067 14.0586 19.4267 14.0586 19.08V18.82C14.0586 18.4733 14.1519 18.1933 14.3386 17.98C14.5386 17.7667 14.8519 17.66 15.2786 17.66C15.7053 17.66 16.0119 17.7667 16.1986 17.98C16.3986 18.1933 16.4986 18.4733 16.4986 18.82V19.08C16.4986 19.4267 16.3986 19.7067 16.1986 19.92C16.0119 20.1333 15.7053 20.24 15.2786 20.24ZM24.0278 20.24C23.3078 20.24 22.6545 20.12 22.0678 19.88C21.4945 19.6267 21.0011 19.2733 20.5878 18.82C20.1878 18.3533 19.8811 17.7867 19.6678 17.12C19.4545 16.4533 19.3478 15.7067 19.3478 14.88C19.3478 13.84 19.5011 12.8667 19.8078 11.96C20.1145 11.04 20.5078 10.2067 20.9878 9.46C21.4811 8.7 22.0211 8.03333 22.6078 7.46C23.1945 6.87333 23.7678 6.4 24.3278 6.04H26.4878C25.7411 6.58667 25.0745 7.12 24.4878 7.64C23.9011 8.16 23.3878 8.70667 22.9478 9.28C22.5078 9.84 22.1345 10.4467 21.8278 11.1C21.5211 11.74 21.2745 12.4667 21.0878 13.28L21.1878 13.32C21.5211 12.7467 21.9478 12.2733 22.4678 11.9C23.0011 11.5133 23.6945 11.32 24.5478 11.32C25.1478 11.32 25.7011 11.42 26.2078 11.62C26.7145 11.82 27.1478 12.1067 27.5078 12.48C27.8678 12.8533 28.1478 13.3067 28.3478 13.84C28.5611 14.3733 28.6678 14.9667 28.6678 15.62C28.6678 16.3 28.5545 16.9267 28.3278 17.5C28.1145 18.06 27.8011 18.5467 27.3878 18.96C26.9878 19.36 26.5011 19.6733 25.9278 19.9C25.3545 20.1267 24.7211 20.24 24.0278 20.24ZM24.0078 18.78C24.9278 18.78 25.6411 18.5267 26.1478 18.02C26.6678 17.5133 26.9278 16.7867 26.9278 15.84V15.68C26.9278 14.7333 26.6678 14.0067 26.1478 13.5C25.6411 12.9933 24.9278 12.74 24.0078 12.74C23.0878 12.74 22.3678 12.9933 21.8478 13.5C21.3411 14.0067 21.0878 14.7333 21.0878 15.68V15.84C21.0878 16.7867 21.3411 17.5133 21.8478 18.02C22.3678 18.5267 23.0878 18.78 24.0078 18.78Z" fill="white"/>
<path d="M75.909 19.168C75.349 19.168 74.859 19.098 74.439 18.958C74.019 18.8087 73.6643 18.608 73.375 18.356C73.095 18.104 72.8803 17.8053 72.731 17.46C72.591 17.1147 72.521 16.7413 72.521 16.34C72.521 15.668 72.703 15.136 73.067 14.744C73.431 14.352 73.907 14.0767 74.495 13.918V13.806C73.9817 13.6287 73.571 13.344 73.263 12.952C72.9643 12.5507 72.815 12.07 72.815 11.51C72.815 10.7633 73.0857 10.1707 73.627 9.732C74.1683 9.284 74.929 9.06 75.909 9.06C76.889 9.06 77.6497 9.284 78.191 9.732C78.7323 10.1707 79.003 10.7633 79.003 11.51C79.003 12.07 78.849 12.5507 78.541 12.952C78.2423 13.344 77.8363 13.6287 77.323 13.806V13.918C77.911 14.0767 78.387 14.352 78.751 14.744C79.115 15.136 79.297 15.668 79.297 16.34C79.297 16.7413 79.2223 17.1147 79.073 17.46C78.933 17.8053 78.7183 18.104 78.429 18.356C78.149 18.608 77.799 18.8087 77.379 18.958C76.959 19.098 76.469 19.168 75.909 19.168ZM75.909 18.146C76.5903 18.146 77.1177 17.9967 77.491 17.698C77.8643 17.39 78.051 16.956 78.051 16.396V16.102C78.051 15.542 77.8643 15.1127 77.491 14.814C77.1177 14.506 76.5903 14.352 75.909 14.352C75.2277 14.352 74.7003 14.506 74.327 14.814C73.9537 15.1127 73.767 15.542 73.767 16.102V16.396C73.767 16.956 73.9537 17.39 74.327 17.698C74.7003 17.9967 75.2277 18.146 75.909 18.146ZM75.909 13.372C76.525 13.372 76.9917 13.2413 77.309 12.98C77.6263 12.7187 77.785 12.336 77.785 11.832V11.622C77.785 11.118 77.6263 10.7353 77.309 10.474C76.9917 10.2127 76.525 10.082 75.909 10.082C75.293 10.082 74.8263 10.2127 74.509 10.474C74.1917 10.7353 74.033 11.118 74.033 11.622V11.832C74.033 12.336 74.1917 12.7187 74.509 12.98C74.8263 13.2413 75.293 13.372 75.909 13.372ZM84.3035 19.168C83.1368 19.168 82.2828 18.7247 81.7415 17.838C81.2095 16.9513 80.9435 15.71 80.9435 14.114C80.9435 12.518 81.2095 11.2767 81.7415 10.39C82.2828 9.50333 83.1368 9.06 84.3035 9.06C85.4702 9.06 86.3195 9.50333 86.8515 10.39C87.3928 11.2767 87.6635 12.518 87.6635 14.114C87.6635 15.71 87.3928 16.9513 86.8515 17.838C86.3195 18.7247 85.4702 19.168 84.3035 19.168ZM84.3035 18.146C84.6862 18.146 85.0128 18.0667 85.2835 17.908C85.5542 17.7493 85.7735 17.5253 85.9415 17.236C86.1095 16.9467 86.2308 16.606 86.3055 16.214C86.3895 15.822 86.4315 15.388 86.4315 14.912V13.316C86.4315 12.84 86.3895 12.406 86.3055 12.014C86.2308 11.622 86.1095 11.2813 85.9415 10.992C85.7735 10.7027 85.5542 10.4787 85.2835 10.32C85.0128 10.1613 84.6862 10.082 84.3035 10.082C83.9208 10.082 83.5942 10.1613 83.3235 10.32C83.0528 10.4787 82.8335 10.7027 82.6655 10.992C82.4975 11.2813 82.3715 11.622 82.2875 12.014C82.2128 12.406 82.1755 12.84 82.1755 13.316V14.912C82.1755 15.388 82.2128 15.822 82.2875 16.214C82.3715 16.606 82.4975 16.9467 82.6655 17.236C82.8335 17.5253 83.0528 17.7493 83.3235 17.908C83.5942 18.0667 83.9208 18.146 84.3035 18.146ZM92.9966 19V11.776H94.1166V13.106H94.1866C94.3173 12.7607 94.5506 12.4527 94.8866 12.182C95.2226 11.9113 95.6846 11.776 96.2726 11.776H96.7066V12.896H96.0486C95.442 12.896 94.966 13.0127 94.6206 13.246C94.2846 13.47 94.1166 13.7547 94.1166 14.1V19H92.9966ZM100.785 19.168C100.29 19.168 99.8422 19.0793 99.4409 18.902C99.0489 18.7247 98.7082 18.4727 98.4189 18.146C98.1389 17.81 97.9196 17.4133 97.7609 16.956C97.6116 16.4893 97.5369 15.9667 97.5369 15.388C97.5369 14.8187 97.6116 14.3007 97.7609 13.834C97.9196 13.3673 98.1389 12.9707 98.4189 12.644C98.7082 12.308 99.0489 12.0513 99.4409 11.874C99.8422 11.6967 100.29 11.608 100.785 11.608C101.27 11.608 101.704 11.6967 102.087 11.874C102.47 12.0513 102.796 12.2987 103.067 12.616C103.338 12.924 103.543 13.2927 103.683 13.722C103.832 14.1513 103.907 14.6227 103.907 15.136V15.668H98.7129V16.004C98.7129 16.312 98.7596 16.6013 98.8529 16.872C98.9556 17.1333 99.0956 17.362 99.2729 17.558C99.4596 17.754 99.6836 17.908 99.9449 18.02C100.216 18.132 100.519 18.188 100.855 18.188C101.312 18.188 101.709 18.0807 102.045 17.866C102.39 17.6513 102.656 17.3433 102.843 16.942L103.641 17.516C103.408 18.0107 103.044 18.412 102.549 18.72C102.054 19.0187 101.466 19.168 100.785 19.168ZM100.785 12.546C100.477 12.546 100.197 12.602 99.9449 12.714C99.6929 12.8167 99.4736 12.966 99.2869 13.162C99.1096 13.358 98.9696 13.5913 98.8669 13.862C98.7642 14.1233 98.7129 14.4127 98.7129 14.73V14.828H102.703V14.674C102.703 14.03 102.526 13.5167 102.171 13.134C101.826 12.742 101.364 12.546 100.785 12.546ZM107.239 19L104.705 11.776H105.825L107.085 15.36L107.869 17.824H107.939L108.723 15.36L110.011 11.776H111.089L108.541 19H107.239ZM113.094 10.082C112.851 10.082 112.674 10.026 112.562 9.914C112.459 9.79267 112.408 9.63867 112.408 9.452V9.27C112.408 9.08333 112.459 8.934 112.562 8.822C112.674 8.70067 112.851 8.64 113.094 8.64C113.336 8.64 113.509 8.70067 113.612 8.822C113.724 8.934 113.78 9.08333 113.78 9.27V9.452C113.78 9.63867 113.724 9.79267 113.612 9.914C113.509 10.026 113.336 10.082 113.094 10.082ZM112.534 11.776H113.654V19H112.534V11.776ZM118.75 19.168C118.255 19.168 117.807 19.0793 117.406 18.902C117.014 18.7247 116.673 18.4727 116.384 18.146C116.104 17.81 115.884 17.4133 115.726 16.956C115.576 16.4893 115.502 15.9667 115.502 15.388C115.502 14.8187 115.576 14.3007 115.726 13.834C115.884 13.3673 116.104 12.9707 116.384 12.644C116.673 12.308 117.014 12.0513 117.406 11.874C117.807 11.6967 118.255 11.608 118.75 11.608C119.235 11.608 119.669 11.6967 120.052 11.874C120.434 12.0513 120.761 12.2987 121.032 12.616C121.302 12.924 121.508 13.2927 121.648 13.722C121.797 14.1513 121.872 14.6227 121.872 15.136V15.668H116.678V16.004C116.678 16.312 116.724 16.6013 116.818 16.872C116.92 17.1333 117.06 17.362 117.238 17.558C117.424 17.754 117.648 17.908 117.91 18.02C118.18 18.132 118.484 18.188 118.82 18.188C119.277 18.188 119.674 18.0807 120.01 17.866C120.355 17.6513 120.621 17.3433 120.808 16.942L121.606 17.516C121.372 18.0107 121.008 18.412 120.514 18.72C120.019 19.0187 119.431 19.168 118.75 19.168ZM118.75 12.546C118.442 12.546 118.162 12.602 117.91 12.714C117.658 12.8167 117.438 12.966 117.252 13.162C117.074 13.358 116.934 13.5913 116.832 13.862C116.729 14.1233 116.678 14.4127 116.678 14.73V14.828H120.668V14.674C120.668 14.03 120.49 13.5167 120.136 13.134C119.79 12.742 119.328 12.546 118.75 12.546ZM122.893 11.776H123.985L124.755 14.898L125.525 18.062H125.553L126.435 14.898L127.345 11.776H128.339L129.277 14.898L130.173 18.062H130.201L130.943 14.898L131.727 11.776H132.777L130.859 19H129.473L128.465 15.528L127.835 13.33H127.807L127.191 15.528L126.183 19H124.825L122.893 11.776ZM136.538 19.168C135.866 19.168 135.301 19.042 134.844 18.79C134.396 18.5287 134.008 18.1833 133.682 17.754L134.48 17.11C134.76 17.4647 135.072 17.74 135.418 17.936C135.763 18.1227 136.164 18.216 136.622 18.216C137.098 18.216 137.466 18.1133 137.728 17.908C137.998 17.7027 138.134 17.4133 138.134 17.04C138.134 16.76 138.04 16.522 137.854 16.326C137.676 16.1207 137.35 15.9807 136.874 15.906L136.3 15.822C135.964 15.7753 135.656 15.7053 135.376 15.612C135.096 15.5093 134.848 15.3787 134.634 15.22C134.428 15.052 134.265 14.8467 134.144 14.604C134.032 14.3613 133.976 14.072 133.976 13.736C133.976 13.3813 134.041 13.0733 134.172 12.812C134.302 12.5413 134.48 12.3173 134.704 12.14C134.937 11.9627 135.212 11.832 135.53 11.748C135.847 11.6547 136.188 11.608 136.552 11.608C137.14 11.608 137.63 11.7107 138.022 11.916C138.423 12.1213 138.773 12.406 139.072 12.77L138.33 13.442C138.171 13.218 137.938 13.0173 137.63 12.84C137.322 12.6533 136.934 12.56 136.468 12.56C136.001 12.56 135.646 12.6627 135.404 12.868C135.17 13.064 135.054 13.3347 135.054 13.68C135.054 14.0347 135.17 14.2913 135.404 14.45C135.646 14.6087 135.992 14.7253 136.44 14.8L137 14.884C137.802 15.0053 138.372 15.2387 138.708 15.584C139.044 15.92 139.212 16.3633 139.212 16.914C139.212 17.614 138.974 18.1647 138.498 18.566C138.022 18.9673 137.368 19.168 136.538 19.168Z" fill="#E6E6E6"/>
<path d="M43.4333 7.63043C43.62 7.0931 44.38 7.0931 44.5667 7.63043L45.7438 11.0168C45.8262 11.2538 46.0474 11.4145 46.2983 11.4197L49.8827 11.4927C50.4514 11.5043 50.6863 12.227 50.233 12.5707L47.3761 14.7366C47.1761 14.8882 47.0916 15.1483 47.1643 15.3885L48.2024 18.82C48.3672 19.3645 47.7524 19.8111 47.2854 19.4862L44.3427 17.4385C44.1367 17.2951 43.8633 17.2951 43.6573 17.4385L40.7146 19.4862C40.2476 19.8111 39.6328 19.3645 39.7976 18.82L40.8357 15.3885C40.9084 15.1483 40.8239 14.8882 40.6239 14.7366L37.767 12.5707C37.3137 12.227 37.5486 11.5043 38.1173 11.4927L41.7017 11.4197C41.9526 11.4145 42.1738 11.2538 42.2562 11.0168L43.4333 7.63043Z" fill="#F7C852"/>
</svg>
