<svg width="140" height="24" viewBox="0 0 140 24" fill="none" xmlns="http://www.w3.org/2000/svg">
<path d="M8.06641 20V17.26H1.32641V15.78L7.16641 6.04H9.66641V15.86H11.6864V17.26H9.66641V20H8.06641ZM2.90641 15.86H8.06641V7.34H7.96641L2.90641 15.86ZM15.2786 20.24C14.8519 20.24 14.5386 20.1333 14.3386 19.92C14.1519 19.7067 14.0586 19.4267 14.0586 19.08V18.82C14.0586 18.4733 14.1519 18.1933 14.3386 17.98C14.5386 17.7667 14.8519 17.66 15.2786 17.66C15.7053 17.66 16.0119 17.7667 16.1986 17.98C16.3986 18.1933 16.4986 18.4733 16.4986 18.82V19.08C16.4986 19.4267 16.3986 19.7067 16.1986 19.92C16.0119 20.1333 15.7053 20.24 15.2786 20.24ZM24.0278 20.24C23.3078 20.24 22.6545 20.12 22.0678 19.88C21.4945 19.6267 21.0011 19.2733 20.5878 18.82C20.1878 18.3533 19.8811 17.7867 19.6678 17.12C19.4545 16.4533 19.3478 15.7067 19.3478 14.88C19.3478 13.84 19.5011 12.8667 19.8078 11.96C20.1145 11.04 20.5078 10.2067 20.9878 9.46C21.4811 8.7 22.0211 8.03333 22.6078 7.46C23.1945 6.87333 23.7678 6.4 24.3278 6.04H26.4878C25.7411 6.58667 25.0745 7.12 24.4878 7.64C23.9011 8.16 23.3878 8.70667 22.9478 9.28C22.5078 9.84 22.1345 10.4467 21.8278 11.1C21.5211 11.74 21.2745 12.4667 21.0878 13.28L21.1878 13.32C21.5211 12.7467 21.9478 12.2733 22.4678 11.9C23.0011 11.5133 23.6945 11.32 24.5478 11.32C25.1478 11.32 25.7011 11.42 26.2078 11.62C26.7145 11.82 27.1478 12.1067 27.5078 12.48C27.8678 12.8533 28.1478 13.3067 28.3478 13.84C28.5611 14.3733 28.6678 14.9667 28.6678 15.62C28.6678 16.3 28.5545 16.9267 28.3278 17.5C28.1145 18.06 27.8011 18.5467 27.3878 18.96C26.9878 19.36 26.5011 19.6733 25.9278 19.9C25.3545 20.1267 24.7211 20.24 24.0278 20.24ZM24.0078 18.78C24.9278 18.78 25.6411 18.5267 26.1478 18.02C26.6678 17.5133 26.9278 16.7867 26.9278 15.84V15.68C26.9278 14.7333 26.6678 14.0067 26.1478 13.5C25.6411 12.9933 24.9278 12.74 24.0078 12.74C23.0878 12.74 22.3678 12.9933 21.8478 13.5C21.3411 14.0067 21.0878 14.7333 21.0878 15.68V15.84C21.0878 16.7867 21.3411 17.5133 21.8478 18.02C22.3678 18.5267 23.0878 18.78 24.0078 18.78Z" fill="white"/>
<path d="M74.159 18L77.897 9.236H73.725V11.056H72.675V8.228H79.087V9.264L75.419 18H74.159ZM84.3035 18.168C83.7435 18.168 83.2535 18.098 82.8335 17.958C82.4135 17.8087 82.0588 17.608 81.7695 17.356C81.4895 17.104 81.2748 16.8053 81.1255 16.46C80.9855 16.1147 80.9155 15.7413 80.9155 15.34C80.9155 14.668 81.0975 14.136 81.4615 13.744C81.8255 13.352 82.3015 13.0767 82.8895 12.918V12.806C82.3762 12.6287 81.9655 12.344 81.6575 11.952C81.3588 11.5507 81.2095 11.07 81.2095 10.51C81.2095 9.76333 81.4802 9.17067 82.0215 8.732C82.5628 8.284 83.3235 8.06 84.3035 8.06C85.2835 8.06 86.0442 8.284 86.5855 8.732C87.1268 9.17067 87.3975 9.76333 87.3975 10.51C87.3975 11.07 87.2435 11.5507 86.9355 11.952C86.6368 12.344 86.2308 12.6287 85.7175 12.806V12.918C86.3055 13.0767 86.7815 13.352 87.1455 13.744C87.5095 14.136 87.6915 14.668 87.6915 15.34C87.6915 15.7413 87.6168 16.1147 87.4675 16.46C87.3275 16.8053 87.1128 17.104 86.8235 17.356C86.5435 17.608 86.1935 17.8087 85.7735 17.958C85.3535 18.098 84.8635 18.168 84.3035 18.168ZM84.3035 17.146C84.9848 17.146 85.5122 16.9967 85.8855 16.698C86.2588 16.39 86.4455 15.956 86.4455 15.396V15.102C86.4455 14.542 86.2588 14.1127 85.8855 13.814C85.5122 13.506 84.9848 13.352 84.3035 13.352C83.6222 13.352 83.0948 13.506 82.7215 13.814C82.3482 14.1127 82.1615 14.542 82.1615 15.102V15.396C82.1615 15.956 82.3482 16.39 82.7215 16.698C83.0948 16.9967 83.6222 17.146 84.3035 17.146ZM84.3035 12.372C84.9195 12.372 85.3862 12.2413 85.7035 11.98C86.0208 11.7187 86.1795 11.336 86.1795 10.832V10.622C86.1795 10.118 86.0208 9.73533 85.7035 9.474C85.3862 9.21267 84.9195 9.082 84.3035 9.082C83.6875 9.082 83.2208 9.21267 82.9035 9.474C82.5862 9.73533 82.4275 10.118 82.4275 10.622V10.832C82.4275 11.336 82.5862 11.7187 82.9035 11.98C83.2208 12.2413 83.6875 12.372 84.3035 12.372ZM92.9966 18V10.776H94.1166V12.106H94.1866C94.3173 11.7607 94.5506 11.4527 94.8866 11.182C95.2226 10.9113 95.6846 10.776 96.2726 10.776H96.7066V11.896H96.0486C95.442 11.896 94.966 12.0127 94.6206 12.246C94.2846 12.47 94.1166 12.7547 94.1166 13.1V18H92.9966ZM100.785 18.168C100.29 18.168 99.8422 18.0793 99.4409 17.902C99.0489 17.7247 98.7082 17.4727 98.4189 17.146C98.1389 16.81 97.9196 16.4133 97.7609 15.956C97.6116 15.4893 97.5369 14.9667 97.5369 14.388C97.5369 13.8187 97.6116 13.3007 97.7609 12.834C97.9196 12.3673 98.1389 11.9707 98.4189 11.644C98.7082 11.308 99.0489 11.0513 99.4409 10.874C99.8422 10.6967 100.29 10.608 100.785 10.608C101.27 10.608 101.704 10.6967 102.087 10.874C102.47 11.0513 102.796 11.2987 103.067 11.616C103.338 11.924 103.543 12.2927 103.683 12.722C103.832 13.1513 103.907 13.6227 103.907 14.136V14.668H98.7129V15.004C98.7129 15.312 98.7596 15.6013 98.8529 15.872C98.9556 16.1333 99.0956 16.362 99.2729 16.558C99.4596 16.754 99.6836 16.908 99.9449 17.02C100.216 17.132 100.519 17.188 100.855 17.188C101.312 17.188 101.709 17.0807 102.045 16.866C102.39 16.6513 102.656 16.3433 102.843 15.942L103.641 16.516C103.408 17.0107 103.044 17.412 102.549 17.72C102.054 18.0187 101.466 18.168 100.785 18.168ZM100.785 11.546C100.477 11.546 100.197 11.602 99.9449 11.714C99.6929 11.8167 99.4736 11.966 99.2869 12.162C99.1096 12.358 98.9696 12.5913 98.8669 12.862C98.7642 13.1233 98.7129 13.4127 98.7129 13.73V13.828H102.703V13.674C102.703 13.03 102.526 12.5167 102.171 12.134C101.826 11.742 101.364 11.546 100.785 11.546ZM107.239 18L104.705 10.776H105.825L107.085 14.36L107.869 16.824H107.939L108.723 14.36L110.011 10.776H111.089L108.541 18H107.239ZM113.094 9.082C112.851 9.082 112.674 9.026 112.562 8.914C112.459 8.79267 112.408 8.63867 112.408 8.452V8.27C112.408 8.08333 112.459 7.934 112.562 7.822C112.674 7.70067 112.851 7.64 113.094 7.64C113.336 7.64 113.509 7.70067 113.612 7.822C113.724 7.934 113.78 8.08333 113.78 8.27V8.452C113.78 8.63867 113.724 8.79267 113.612 8.914C113.509 9.026 113.336 9.082 113.094 9.082ZM112.534 10.776H113.654V18H112.534V10.776ZM118.75 18.168C118.255 18.168 117.807 18.0793 117.406 17.902C117.014 17.7247 116.673 17.4727 116.384 17.146C116.104 16.81 115.884 16.4133 115.726 15.956C115.576 15.4893 115.502 14.9667 115.502 14.388C115.502 13.8187 115.576 13.3007 115.726 12.834C115.884 12.3673 116.104 11.9707 116.384 11.644C116.673 11.308 117.014 11.0513 117.406 10.874C117.807 10.6967 118.255 10.608 118.75 10.608C119.235 10.608 119.669 10.6967 120.052 10.874C120.434 11.0513 120.761 11.2987 121.032 11.616C121.302 11.924 121.508 12.2927 121.648 12.722C121.797 13.1513 121.872 13.6227 121.872 14.136V14.668H116.678V15.004C116.678 15.312 116.724 15.6013 116.818 15.872C116.92 16.1333 117.06 16.362 117.238 16.558C117.424 16.754 117.648 16.908 117.91 17.02C118.18 17.132 118.484 17.188 118.82 17.188C119.277 17.188 119.674 17.0807 120.01 16.866C120.355 16.6513 120.621 16.3433 120.808 15.942L121.606 16.516C121.372 17.0107 121.008 17.412 120.514 17.72C120.019 18.0187 119.431 18.168 118.75 18.168ZM118.75 11.546C118.442 11.546 118.162 11.602 117.91 11.714C117.658 11.8167 117.438 11.966 117.252 12.162C117.074 12.358 116.934 12.5913 116.832 12.862C116.729 13.1233 116.678 13.4127 116.678 13.73V13.828H120.668V13.674C120.668 13.03 120.49 12.5167 120.136 12.134C119.79 11.742 119.328 11.546 118.75 11.546ZM122.893 10.776H123.985L124.755 13.898L125.525 17.062H125.553L126.435 13.898L127.345 10.776H128.339L129.277 13.898L130.173 17.062H130.201L130.943 13.898L131.727 10.776H132.777L130.859 18H129.473L128.465 14.528L127.835 12.33H127.807L127.191 14.528L126.183 18H124.825L122.893 10.776ZM136.538 18.168C135.866 18.168 135.301 18.042 134.844 17.79C134.396 17.5287 134.008 17.1833 133.682 16.754L134.48 16.11C134.76 16.4647 135.072 16.74 135.418 16.936C135.763 17.1227 136.164 17.216 136.622 17.216C137.098 17.216 137.466 17.1133 137.728 16.908C137.998 16.7027 138.134 16.4133 138.134 16.04C138.134 15.76 138.04 15.522 137.854 15.326C137.676 15.1207 137.35 14.9807 136.874 14.906L136.3 14.822C135.964 14.7753 135.656 14.7053 135.376 14.612C135.096 14.5093 134.848 14.3787 134.634 14.22C134.428 14.052 134.265 13.8467 134.144 13.604C134.032 13.3613 133.976 13.072 133.976 12.736C133.976 12.3813 134.041 12.0733 134.172 11.812C134.302 11.5413 134.48 11.3173 134.704 11.14C134.937 10.9627 135.212 10.832 135.53 10.748C135.847 10.6547 136.188 10.608 136.552 10.608C137.14 10.608 137.63 10.7107 138.022 10.916C138.423 11.1213 138.773 11.406 139.072 11.77L138.33 12.442C138.171 12.218 137.938 12.0173 137.63 11.84C137.322 11.6533 136.934 11.56 136.468 11.56C136.001 11.56 135.646 11.6627 135.404 11.868C135.17 12.064 135.054 12.3347 135.054 12.68C135.054 13.0347 135.17 13.2913 135.404 13.45C135.646 13.6087 135.992 13.7253 136.44 13.8L137 13.884C137.802 14.0053 138.372 14.2387 138.708 14.584C139.044 14.92 139.212 15.3633 139.212 15.914C139.212 16.614 138.974 17.1647 138.498 17.566C138.022 17.9673 137.368 18.168 136.538 18.168Z" fill="#F7F7F7"/>
<path d="M43.4333 7.63043C43.62 7.0931 44.38 7.0931 44.5667 7.63043L45.7438 11.0168C45.8262 11.2538 46.0474 11.4145 46.2983 11.4197L49.8827 11.4927C50.4514 11.5043 50.6863 12.227 50.233 12.5707L47.3761 14.7366C47.1761 14.8882 47.0916 15.1483 47.1643 15.3885L48.2024 18.82C48.3672 19.3645 47.7524 19.8111 47.2854 19.4862L44.3427 17.4385C44.1367 17.2951 43.8633 17.2951 43.6573 17.4385L40.7146 19.4862C40.2476 19.8111 39.6328 19.3645 39.7976 18.82L40.8357 15.3885C40.9084 15.1483 40.8239 14.8882 40.6239 14.7366L37.767 12.5707C37.3137 12.227 37.5486 11.5043 38.1173 11.4927L41.7017 11.4197C41.9526 11.4145 42.1738 11.2538 42.2562 11.0168L43.4333 7.63043Z" fill="#F7C852"/>
</svg>
